<mxfile host="drawio-plugin" modified="2022-06-21T17:40:55.289Z" agent="5.0 (Windows NT 6.2; Win64; x64) AppleWebKit/537.36 (KHTML, like Gecko) Chrome/89.0.4389.114 Safari/537.36" etag="jgS6ws_lOOfVK1CdObBO" version="15.5.4" type="embed"><diagram id="hBburEqg8JwwGzWQHXmY" name="Abstract_Factory_Pattern"><mxGraphModel dx="1643" dy="1095" grid="1" gridSize="10" guides="1" tooltips="1" connect="1" arrows="1" fold="1" page="1" pageScale="1" pageWidth="827" pageHeight="1169" math="0" shadow="0"><root><mxCell id="0"/><mxCell id="1" parent="0"/><mxCell id="jRuNMqYFHmgUy3PyOSuZ-5" value="&lt;p style=&quot;margin: 0px ; margin-top: 4px ; text-align: center&quot;&gt;&lt;i&gt;&amp;lt;&amp;lt;Interface&amp;gt;&amp;gt;&lt;/i&gt;&lt;/p&gt;&lt;p style=&quot;margin: 0px ; margin-top: 4px ; text-align: center&quot;&gt;&lt;i&gt;&lt;b&gt;AbstractFactory&lt;/b&gt;&lt;/i&gt;&lt;br&gt;&lt;/p&gt;&lt;hr size=&quot;1&quot;&gt;&lt;p style=&quot;margin: 0px ; margin-left: 4px&quot;&gt;&lt;i&gt;+ createBewerbungsDTO(): BewerbungsDTO&lt;/i&gt;&lt;br&gt;&lt;/p&gt;&lt;p style=&quot;margin: 0px ; margin-left: 4px&quot;&gt;&lt;br&gt;&lt;/p&gt;&lt;p style=&quot;margin: 0px ; margin-left: 4px&quot;&gt;&lt;i&gt;+ createInvoiceDTO(): InvoiceDTO&lt;/i&gt;&lt;/p&gt;" style="verticalAlign=top;align=left;overflow=fill;fontSize=12;fontFamily=Helvetica;html=1;" parent="1" vertex="1"><mxGeometry x="560" y="200" width="290" height="98" as="geometry"/></mxCell><mxCell id="jRuNMqYFHmgUy3PyOSuZ-7" value="BewerbungsDTO" style="swimlane;fontStyle=3;childLayout=stackLayout;horizontal=1;startSize=26;fillColor=none;horizontalStack=0;resizeParent=1;resizeParentMax=0;resizeLast=0;collapsible=1;marginBottom=0;" parent="1" vertex="1"><mxGeometry x="150" y="370" width="166" height="78" as="geometry"/></mxCell><mxCell id="jRuNMqYFHmgUy3PyOSuZ-9" value="+ equals(o: Object): boolean" style="text;strokeColor=none;fillColor=none;align=left;verticalAlign=top;spacingLeft=4;spacingRight=4;overflow=hidden;rotatable=0;points=[[0,0.5],[1,0.5]];portConstraint=eastwest;fontStyle=2" parent="jRuNMqYFHmgUy3PyOSuZ-7" vertex="1"><mxGeometry y="26" width="166" height="26" as="geometry"/></mxCell><mxCell id="jRuNMqYFHmgUy3PyOSuZ-10" value="+ toString() : String" style="text;strokeColor=none;fillColor=none;align=left;verticalAlign=top;spacingLeft=4;spacingRight=4;overflow=hidden;rotatable=0;points=[[0,0.5],[1,0.5]];portConstraint=eastwest;fontStyle=2" parent="jRuNMqYFHmgUy3PyOSuZ-7" vertex="1"><mxGeometry y="52" width="166" height="26" as="geometry"/></mxCell><mxCell id="jRuNMqYFHmgUy3PyOSuZ-19" style="edgeStyle=orthogonalEdgeStyle;rounded=0;orthogonalLoop=1;jettySize=auto;html=1;endArrow=block;endFill=0;endSize=12;" parent="1" source="jRuNMqYFHmgUy3PyOSuZ-11" target="jRuNMqYFHmgUy3PyOSuZ-7" edge="1"><mxGeometry relative="1" as="geometry"/></mxCell><mxCell id="jRuNMqYFHmgUy3PyOSuZ-11" value="BewerbungsDTOColl" style="swimlane;fontStyle=1;childLayout=stackLayout;horizontal=1;startSize=26;fillColor=none;horizontalStack=0;resizeParent=1;resizeParentMax=0;resizeLast=0;collapsible=1;marginBottom=0;" parent="1" vertex="1"><mxGeometry x="30" y="500" width="180" height="78" as="geometry"/></mxCell><mxCell id="jRuNMqYFHmgUy3PyOSuZ-13" value="+ equals(o : Object): boolean" style="text;strokeColor=none;fillColor=none;align=left;verticalAlign=top;spacingLeft=4;spacingRight=4;overflow=hidden;rotatable=0;points=[[0,0.5],[1,0.5]];portConstraint=eastwest;" parent="jRuNMqYFHmgUy3PyOSuZ-11" vertex="1"><mxGeometry y="26" width="180" height="26" as="geometry"/></mxCell><mxCell id="jRuNMqYFHmgUy3PyOSuZ-14" value="+ toString(): String" style="text;strokeColor=none;fillColor=none;align=left;verticalAlign=top;spacingLeft=4;spacingRight=4;overflow=hidden;rotatable=0;points=[[0,0.5],[1,0.5]];portConstraint=eastwest;" parent="jRuNMqYFHmgUy3PyOSuZ-11" vertex="1"><mxGeometry y="52" width="180" height="26" as="geometry"/></mxCell><mxCell id="jRuNMqYFHmgUy3PyOSuZ-21" style="edgeStyle=orthogonalEdgeStyle;rounded=0;orthogonalLoop=1;jettySize=auto;html=1;endArrow=block;endFill=0;endSize=12;" parent="1" source="jRuNMqYFHmgUy3PyOSuZ-15" target="jRuNMqYFHmgUy3PyOSuZ-7" edge="1"><mxGeometry relative="1" as="geometry"/></mxCell><mxCell id="jRuNMqYFHmgUy3PyOSuZ-15" value="BewerbungsDTOStep" style="swimlane;fontStyle=1;childLayout=stackLayout;horizontal=1;startSize=26;fillColor=none;horizontalStack=0;resizeParent=1;resizeParentMax=0;resizeLast=0;collapsible=1;marginBottom=0;" parent="1" vertex="1"><mxGeometry x="260" y="500" width="170" height="78" as="geometry"/></mxCell><mxCell id="jRuNMqYFHmgUy3PyOSuZ-16" value="+ equals(o : Object): boolean" style="text;strokeColor=none;fillColor=none;align=left;verticalAlign=top;spacingLeft=4;spacingRight=4;overflow=hidden;rotatable=0;points=[[0,0.5],[1,0.5]];portConstraint=eastwest;" parent="jRuNMqYFHmgUy3PyOSuZ-15" vertex="1"><mxGeometry y="26" width="170" height="26" as="geometry"/></mxCell><mxCell id="jRuNMqYFHmgUy3PyOSuZ-17" value="+ toString(): String" style="text;strokeColor=none;fillColor=none;align=left;verticalAlign=top;spacingLeft=4;spacingRight=4;overflow=hidden;rotatable=0;points=[[0,0.5],[1,0.5]];portConstraint=eastwest;" parent="jRuNMqYFHmgUy3PyOSuZ-15" vertex="1"><mxGeometry y="52" width="170" height="26" as="geometry"/></mxCell><mxCell id="jRuNMqYFHmgUy3PyOSuZ-27" style="edgeStyle=orthogonalEdgeStyle;rounded=0;orthogonalLoop=1;jettySize=auto;html=1;endArrow=block;endFill=0;endSize=12;dashed=1;" parent="1" source="jRuNMqYFHmgUy3PyOSuZ-22" target="jRuNMqYFHmgUy3PyOSuZ-5" edge="1"><mxGeometry relative="1" as="geometry"/></mxCell><mxCell id="jRuNMqYFHmgUy3PyOSuZ-29" style="edgeStyle=orthogonalEdgeStyle;rounded=0;orthogonalLoop=1;jettySize=auto;html=1;entryX=0.75;entryY=0;entryDx=0;entryDy=0;endArrow=open;endFill=0;endSize=7;dashed=1;" parent="1" source="jRuNMqYFHmgUy3PyOSuZ-22" target="jRuNMqYFHmgUy3PyOSuZ-15" edge="1"><mxGeometry relative="1" as="geometry"/></mxCell><mxCell id="11" style="edgeStyle=orthogonalEdgeStyle;rounded=0;orthogonalLoop=1;jettySize=auto;html=1;endArrow=open;endFill=0;endSize=7;dashed=1;" edge="1" parent="1" source="jRuNMqYFHmgUy3PyOSuZ-22" target="5"><mxGeometry relative="1" as="geometry"><Array as="points"><mxPoint x="560" y="520"/><mxPoint x="810" y="520"/></Array></mxGeometry></mxCell><mxCell id="jRuNMqYFHmgUy3PyOSuZ-22" value="ConcreteFactoryStep" style="swimlane;fontStyle=1;childLayout=stackLayout;horizontal=1;startSize=26;fillColor=none;horizontalStack=0;resizeParent=1;resizeParentMax=0;resizeLast=0;collapsible=1;marginBottom=0;" parent="1" vertex="1"><mxGeometry x="400" y="360" width="260" height="78" as="geometry"/></mxCell><mxCell id="jRuNMqYFHmgUy3PyOSuZ-24" value="+ createBewerbungsDTO() : BewerbungsDTO" style="text;strokeColor=none;fillColor=none;align=left;verticalAlign=top;spacingLeft=4;spacingRight=4;overflow=hidden;rotatable=0;points=[[0,0.5],[1,0.5]];portConstraint=eastwest;fontStyle=0" parent="jRuNMqYFHmgUy3PyOSuZ-22" vertex="1"><mxGeometry y="26" width="260" height="26" as="geometry"/></mxCell><mxCell id="7" value="+ createInvoiceDTO() : InvoiceDTO" style="text;strokeColor=none;fillColor=none;align=left;verticalAlign=top;spacingLeft=4;spacingRight=4;overflow=hidden;rotatable=0;points=[[0,0.5],[1,0.5]];portConstraint=eastwest;fontStyle=0" vertex="1" parent="jRuNMqYFHmgUy3PyOSuZ-22"><mxGeometry y="52" width="260" height="26" as="geometry"/></mxCell><mxCell id="jRuNMqYFHmgUy3PyOSuZ-28" style="edgeStyle=orthogonalEdgeStyle;rounded=0;orthogonalLoop=1;jettySize=auto;html=1;dashed=1;endArrow=block;endFill=0;endSize=12;" parent="1" source="jRuNMqYFHmgUy3PyOSuZ-25" target="jRuNMqYFHmgUy3PyOSuZ-5" edge="1"><mxGeometry relative="1" as="geometry"/></mxCell><mxCell id="jRuNMqYFHmgUy3PyOSuZ-30" style="edgeStyle=orthogonalEdgeStyle;rounded=0;orthogonalLoop=1;jettySize=auto;html=1;dashed=1;endArrow=open;endFill=0;endSize=7;" parent="1" source="jRuNMqYFHmgUy3PyOSuZ-25" target="jRuNMqYFHmgUy3PyOSuZ-11" edge="1"><mxGeometry relative="1" as="geometry"><Array as="points"><mxPoint x="690" y="399"/><mxPoint x="690" y="630"/><mxPoint x="110" y="630"/></Array></mxGeometry></mxCell><mxCell id="12" style="edgeStyle=orthogonalEdgeStyle;rounded=0;orthogonalLoop=1;jettySize=auto;html=1;dashed=1;endArrow=open;endFill=0;endSize=7;" edge="1" parent="1" source="jRuNMqYFHmgUy3PyOSuZ-25" target="6"><mxGeometry relative="1" as="geometry"><Array as="points"><mxPoint x="1110" y="399"/></Array></mxGeometry></mxCell><mxCell id="jRuNMqYFHmgUy3PyOSuZ-25" value="ConcreteFactoryColl" style="swimlane;fontStyle=1;childLayout=stackLayout;horizontal=1;startSize=26;fillColor=none;horizontalStack=0;resizeParent=1;resizeParentMax=0;resizeLast=0;collapsible=1;marginBottom=0;" parent="1" vertex="1"><mxGeometry x="770" y="360" width="200" height="78" as="geometry"/></mxCell><mxCell id="8" value="+ createInvoiceDTO() : InvoiceDTO" style="text;strokeColor=none;fillColor=none;align=left;verticalAlign=top;spacingLeft=4;spacingRight=4;overflow=hidden;rotatable=0;points=[[0,0.5],[1,0.5]];portConstraint=eastwest;fontStyle=0" vertex="1" parent="jRuNMqYFHmgUy3PyOSuZ-25"><mxGeometry y="26" width="200" height="26" as="geometry"/></mxCell><mxCell id="jRuNMqYFHmgUy3PyOSuZ-26" value="+ createDTO() : BewerbungsDTO" style="text;strokeColor=none;fillColor=none;align=left;verticalAlign=top;spacingLeft=4;spacingRight=4;overflow=hidden;rotatable=0;points=[[0,0.5],[1,0.5]];portConstraint=eastwest;fontStyle=0" parent="jRuNMqYFHmgUy3PyOSuZ-25" vertex="1"><mxGeometry y="52" width="200" height="26" as="geometry"/></mxCell><mxCell id="2" value="InvoiceDTO" style="swimlane;fontStyle=3;childLayout=stackLayout;horizontal=1;startSize=26;fillColor=none;horizontalStack=0;resizeParent=1;resizeParentMax=0;resizeLast=0;collapsible=1;marginBottom=0;" vertex="1" parent="1"><mxGeometry x="870" y="513" width="166" height="52" as="geometry"/></mxCell><mxCell id="9" style="edgeStyle=orthogonalEdgeStyle;rounded=0;orthogonalLoop=1;jettySize=auto;html=1;endArrow=block;endFill=0;endSize=10;" edge="1" parent="1" source="5" target="2"><mxGeometry relative="1" as="geometry"/></mxCell><mxCell id="5" value="InvoiceDTOStep" style="swimlane;fontStyle=1;childLayout=stackLayout;horizontal=1;startSize=26;fillColor=none;horizontalStack=0;resizeParent=1;resizeParentMax=0;resizeLast=0;collapsible=1;marginBottom=0;" vertex="1" parent="1"><mxGeometry x="780" y="610" width="136" height="52" as="geometry"/></mxCell><mxCell id="10" style="edgeStyle=orthogonalEdgeStyle;rounded=0;orthogonalLoop=1;jettySize=auto;html=1;endArrow=block;endFill=0;endSize=10;" edge="1" parent="1" source="6" target="2"><mxGeometry relative="1" as="geometry"/></mxCell><mxCell id="6" value="InvoiceDTOColl" style="swimlane;fontStyle=1;childLayout=stackLayout;horizontal=1;startSize=26;fillColor=none;horizontalStack=0;resizeParent=1;resizeParentMax=0;resizeLast=0;collapsible=1;marginBottom=0;" vertex="1" parent="1"><mxGeometry x="1000" y="610" width="136" height="52" as="geometry"/></mxCell><mxCell id="17" style="edgeStyle=orthogonalEdgeStyle;rounded=0;orthogonalLoop=1;jettySize=auto;html=1;dashed=1;endArrow=open;endFill=0;endSize=7;" edge="1" parent="1" source="13" target="jRuNMqYFHmgUy3PyOSuZ-7"><mxGeometry relative="1" as="geometry"/></mxCell><mxCell id="18" style="edgeStyle=orthogonalEdgeStyle;rounded=0;orthogonalLoop=1;jettySize=auto;html=1;dashed=1;endArrow=open;endFill=0;endSize=7;" edge="1" parent="1" source="13" target="2"><mxGeometry relative="1" as="geometry"><Array as="points"><mxPoint x="300" y="180"/><mxPoint x="990" y="180"/></Array></mxGeometry></mxCell><mxCell id="13" value="ManagementControl" style="swimlane;fontStyle=1;childLayout=stackLayout;horizontal=1;startSize=26;fillColor=none;horizontalStack=0;resizeParent=1;resizeParentMax=0;resizeLast=0;collapsible=1;marginBottom=0;" vertex="1" parent="1"><mxGeometry x="230" y="200" width="140" height="52" as="geometry"/></mxCell></root></mxGraphModel></diagram></mxfile>